<svg id="_001-add-to-cart" data-name="001-add-to-cart" xmlns="http://www.w3.org/2000/svg" width="43.548" height="43.991" viewBox="0 0 43.548 43.991">
  <ellipse id="Ellipse_1" data-name="Ellipse 1" cx="2.129" cy="2.838" rx="2.129" ry="2.838" transform="translate(17.029 38.315)" fill="#fff"/>
  <circle id="Ellipse_2" data-name="Ellipse 2" cx="2.838" cy="2.838" r="2.838" transform="translate(31.219 38.315)" fill="#fff"/>
  <path id="Path_13" data-name="Path 13" d="M34.588,11.794A11.794,11.794,0,1,1,22.794,0,11.808,11.808,0,0,1,34.588,11.794Zm-5.443,0A1.815,1.815,0,0,0,27.33,9.98H24.609V7.258a1.814,1.814,0,0,0-3.629,0V9.98H18.258a1.814,1.814,0,0,0,0,3.629H20.98V16.33a1.814,1.814,0,0,0,3.629,0V13.609H27.33A1.815,1.815,0,0,0,29.145,11.794Z" transform="translate(8.959)" fill="#fff"/>
  <path id="Path_14" data-name="Path 14" d="M16.33,10.165c0-.307.027-.606.045-.907H11.538l-.69-3.277A5.015,5.015,0,0,0,5.988,2.02L1.366,2H1.361a1.361,1.361,0,0,0-.005,2.722l4.62.02a2.281,2.281,0,0,1,2.21,1.8L9.1,10.9l3.284,15.6H11.341a4.083,4.083,0,1,0,0,8.165H38.558a1.361,1.361,0,1,0,0-2.722H11.341a1.361,1.361,0,0,1,0-2.722H38.558a1.363,1.363,0,0,0,1.332-1.081L41.1,22.408a15.324,15.324,0,0,1-9.343,3.181A15.44,15.44,0,0,1,16.33,10.165Z" transform="translate(0 1.629)" fill="#fff"/>
</svg>
