<svg xmlns="http://www.w3.org/2000/svg" width="102.306" height="99.476" viewBox="0 0 102.306 99.476">
  <g id="_1" data-name="1" transform="translate(-54.09 -53.56)">
    <path id="Path_74" data-name="Path 74" d="M135.352,153.026a3.817,3.817,0,0,1-2.874-1.3l-12.2-13.937a60.053,60.053,0,0,1-15.034,1.9c-13.52,0-26.281-4.4-35.913-12.38-9.83-8.143-15.245-19.047-15.245-30.686S59.515,74.08,69.335,65.932c9.632-7.978,22.393-12.372,35.913-12.372s26.281,4.395,35.905,12.372c9.83,8.143,15.243,19.047,15.243,30.684,0,12.423-6.252,24.073-17.227,32.246v20.357a3.817,3.817,0,0,1-3.817,3.817Zm-13.785-23.38a3.817,3.817,0,0,1,2.874,1.3l7.094,8.1V126.9a3.817,3.817,0,0,1,1.672-3.153c9.894-6.766,15.566-16.655,15.566-27.131,0-19.53-19.52-35.422-43.514-35.422S61.744,77.086,61.744,96.616s19.51,35.432,43.5,35.432a52.185,52.185,0,0,0,15.207-2.229A3.8,3.8,0,0,1,121.567,129.646Z" transform="translate(0)"/>
    <path id="Path_75" data-name="Path 75" d="M190.3,241.615a2.594,2.594,0,0,1-.374-.018c-.12-.018-.254-.033-.372-.056a3.124,3.124,0,0,1-.361-.092c-.107-.036-.239-.079-.354-.127s-.227-.1-.336-.16a3.721,3.721,0,0,1-.323-.191c-.1-.069-.2-.142-.3-.221a3.766,3.766,0,0,1-.28-.254c-.089-.089-.173-.183-.254-.28a3.516,3.516,0,0,1-.221-.3,3.728,3.728,0,0,1-.191-.323q-.089-.165-.16-.336a3.6,3.6,0,0,1-.125-.351,3.9,3.9,0,0,1-.148-.733,3.732,3.732,0,0,1-.02-.377,3.646,3.646,0,0,1,.02-.374,3.871,3.871,0,0,1,.148-.735,3.6,3.6,0,0,1,.125-.351q.074-.171.16-.336a3.725,3.725,0,0,1,.191-.323c.069-.1.143-.2.221-.3a3.772,3.772,0,0,1,.254-.28c.089-.089.183-.173.28-.254a3.5,3.5,0,0,1,.3-.221,3.178,3.178,0,0,1,.323-.191q.165-.087.336-.16a3.45,3.45,0,0,1,.354-.127c.117-.036.239-.066.361-.092s.254-.043.372-.056a3.7,3.7,0,0,1,.751,0c.122.013.255.033.369.056a3.473,3.473,0,0,1,.364.092,3.644,3.644,0,0,1,.351.127c.114.048.229.1.338.16a3.435,3.435,0,0,1,.321.191,3.642,3.642,0,0,1,.3.221,3.767,3.767,0,0,1,.28.254c.089.089.173.183.254.28a3.5,3.5,0,0,1,.221.3,3.717,3.717,0,0,1,.191.323q.087.165.16.336c.048.115.089.234.127.351s.066.254.092.364a3.678,3.678,0,0,1,.074.746,3.629,3.629,0,0,1-.074.746,3.622,3.622,0,0,1-.092.364c-.036.109-.079.237-.127.351s-.1.227-.16.336a3.709,3.709,0,0,1-.191.323c-.069.1-.142.2-.221.3a3.772,3.772,0,0,1-.254.28c-.089.089-.183.173-.28.254a3.65,3.65,0,0,1-.3.221q-.158.1-.321.191c-.109.059-.224.112-.338.16s-.234.089-.351.127a3.443,3.443,0,0,1-.364.092c-.122.025-.254.043-.369.056A3.526,3.526,0,0,1,190.3,241.615Z" transform="translate(-98.701 -134.505)"/>
    <path id="Path_76" data-name="Path 76" d="M301.317,241.619a3.69,3.69,0,0,1-.374-.018c-.125-.013-.254-.033-.372-.056a3.117,3.117,0,0,1-.361-.092c-.107-.036-.237-.079-.351-.127s-.229-.1-.338-.16a3.964,3.964,0,0,1-.621-.412,3.292,3.292,0,0,1-.277-.254,3.753,3.753,0,0,1-.255-.28c-.079-.1-.155-.2-.224-.3a3.69,3.69,0,0,1-.191-.323q-.087-.165-.16-.336c-.046-.115-.089-.234-.125-.351a3.035,3.035,0,0,1-.092-.364,3.947,3.947,0,0,1-.076-.746,3.731,3.731,0,0,1,.02-.377,3.669,3.669,0,0,1,.056-.369,3.034,3.034,0,0,1,.092-.364c.036-.117.079-.237.125-.351a3.388,3.388,0,0,1,.16-.336,3.7,3.7,0,0,1,.191-.323c.069-.1.145-.2.224-.3a3.74,3.74,0,0,1,.255-.28c.087-.087.181-.173.277-.254a3.97,3.97,0,0,1,.623-.412c.109-.059.221-.112.338-.16s.232-.089.351-.127a3.575,3.575,0,0,1,.361-.092c.122-.025.255-.043.372-.056a4.111,4.111,0,0,1,.763,0c.122.013.254.033.369.056a3.457,3.457,0,0,1,.364.092c.109.036.237.079.351.127s.229.1.338.16.216.122.321.191a3.259,3.259,0,0,1,.3.221,3.755,3.755,0,0,1,.28.254c.089.089.173.183.254.28a3.479,3.479,0,0,1,.221.3,3.743,3.743,0,0,1,.193.323c.056.109.112.221.158.336a3.657,3.657,0,0,1,.127.351c.036.12.066.254.092.364a3.473,3.473,0,0,1,.056.369,3.712,3.712,0,0,1,.018.377,3.629,3.629,0,0,1-.018.374c-.013.125-.033.254-.056.372a3.33,3.33,0,0,1-.092.364,3.65,3.65,0,0,1-.127.351c-.046.115-.1.227-.158.336a3.737,3.737,0,0,1-.193.323c-.069.1-.142.2-.221.3a3.759,3.759,0,0,1-.254.28c-.089.089-.183.173-.28.254a3.254,3.254,0,0,1-.3.221q-.155.1-.321.191c-.109.059-.224.112-.338.16s-.234.089-.351.127a3.457,3.457,0,0,1-.364.092c-.122.025-.254.043-.369.056a3.736,3.736,0,0,1-.392.018Z" transform="translate(-181.47 -134.509)"/>
    <path id="Path_77" data-name="Path 77" d="M245.808,241.606a3.845,3.845,0,0,1-2.7-1.117,3.732,3.732,0,0,1-.254-.28c-.079-.1-.153-.2-.224-.3a2.912,2.912,0,0,1-.191-.323,3.359,3.359,0,0,1-.158-.336,3.627,3.627,0,0,1-.127-.351c-.036-.12-.066-.254-.092-.364a3.688,3.688,0,0,1-.056-.369,3.993,3.993,0,0,1,0-.763,3.69,3.69,0,0,1,.056-.369,3.7,3.7,0,0,1,.219-.715,3.362,3.362,0,0,1,.158-.336c.058-.112.125-.219.191-.323a3.173,3.173,0,0,1,.224-.3,3.745,3.745,0,0,1,.254-.28,3.848,3.848,0,0,1,3.074-1.1c.125.013.254.033.372.056s.242.056.361.092a3.392,3.392,0,0,1,.351.127c.115.048.229.1.338.16a3.966,3.966,0,0,1,.623.412,3.282,3.282,0,0,1,.277.254,3.725,3.725,0,0,1,.254.28c.079.1.155.2.224.3a3.717,3.717,0,0,1,.191.323q.087.165.16.336c.046.114.089.234.125.351a3.054,3.054,0,0,1,.092.364,3.692,3.692,0,0,1,.056.369,3.5,3.5,0,0,1,0,.763,3.7,3.7,0,0,1-.056.369,3.053,3.053,0,0,1-.092.364c-.036.117-.079.237-.125.351a3.381,3.381,0,0,1-.16.336,3.717,3.717,0,0,1-.191.323c-.069.1-.145.2-.224.3a3.732,3.732,0,0,1-.254.28c-.086.087-.181.171-.277.254a3.966,3.966,0,0,1-.623.412c-.109.059-.224.112-.338.16s-.232.089-.351.127-.254.066-.361.092a3.339,3.339,0,0,1-.372.056A3.686,3.686,0,0,1,245.808,241.606Z" transform="translate(-140.084 -134.496)"/>
  </g>
</svg>
