<svg xmlns="http://www.w3.org/2000/svg" width="50.591" height="50.591" viewBox="0 0 50.591 50.591">
  <path id="iconfinder_Circled_Facebook_svg_5279111" d="M25.2,50.591h0Zm.178,0h0Zm-.256,0h0Zm.337,0h0Zm-.412,0h0Zm.494,0h0Zm.082,0h0Zm-.67,0h0Zm.751,0h0Zm-.83,0h0Zm.912,0h0Zm-.987,0h0Zm-.093,0h0Zm1.161,0h0Zm-1.242,0h0Zm1.323,0h0Zm.081,0h0Zm-1.479,0h0Zm-.071,0h0Zm1.631,0h0Zm.081,0h0Zm-1.815,0h0Zm-.074,0h0Zm1.97,0h0Zm-2.043,0h0Zm2.124,0h0Zm-2.226,0,.038,0h-.038Zm2.307,0h-.009l.038,0h-.028Zm-2.38,0,.039,0h-.039Zm2.461,0H26.5l.039,0Zm-2.533,0,.039,0h-.039Zm2.613,0h-.028l.039,0Zm.081,0-.036,0,.032,0,.037,0Zm-2.759,0,.032,0-.036,0-.033,0,.037,0Zm2.84,0h-.016l.04,0Zm-2.949,0,.04,0h-.04Zm-.071,0,.04,0h-.04Zm3.1,0h-.025l.04,0h-.015Zm-3.169-.005.036,0-.034,0-.034,0Zm3.25,0-.034,0,.036,0,.031,0-.034,0Zm.08-.005h-.012l.038,0-.026,0Zm-3.434,0,.038,0h-.012Zm-.071,0,.038,0h-.038Zm3.586,0h-.021l.038,0Zm-3.657-.006.034,0-.027,0h-.008Zm3.737,0-.027,0,.034,0H27.16Zm-3.833-.008.03,0H23.35Zm3.913,0h-.007l.03,0Zm.08-.006h-.014l.031,0Zm-4.067,0,.031,0h-.031Zm-.072-.006.026,0h-.026Zm4.219,0h-.018l.026,0ZM23.1,50.5h0Zm4.377,0h0Zm.08-.007h-.007l.018,0Zm-4.542,0,.018,0h-.018Zm-.074-.007h0Zm4.7,0h0Zm-6.3-.2a25.3,25.3,0,1,1,7.9,0V32.607h5.894L36.263,25.3H29.248V20.55c0-2,.98-3.95,4.122-3.95h3.19V10.375A38.9,38.9,0,0,0,30.9,9.881c-5.778,0-9.554,3.5-9.554,9.841V25.3H14.92v7.312h6.423Z" fill="#fff" fill-rule="evenodd"/>
</svg>
