<svg xmlns="http://www.w3.org/2000/svg" width="28" height="23.796" viewBox="0 0 28 23.796">
  <path id="iconfinder_menu-alt_134216" d="M4,10.759H28a2.216,2.216,0,0,0,2-2.38A2.216,2.216,0,0,0,28,6H4A2.216,2.216,0,0,0,2,8.38,2.216,2.216,0,0,0,4,10.759Zm24,4.759H4A2.216,2.216,0,0,0,2,17.9a2.216,2.216,0,0,0,2,2.38H28a2.216,2.216,0,0,0,2-2.38A2.216,2.216,0,0,0,28,15.518Zm0,9.518H4a2.216,2.216,0,0,0-2,2.38A2.216,2.216,0,0,0,4,29.8H28a2.216,2.216,0,0,0,2-2.38A2.216,2.216,0,0,0,28,25.037Z" transform="translate(-2 -6)"/>
</svg>
