<svg xmlns="http://www.w3.org/2000/svg" width="50.591" height="50.591" viewBox="0 0 50.591 50.591">
  <path id="iconfinder_Circled_Instagram_svg_5279112" d="M25.3,0A25.3,25.3,0,1,1,0,25.3,25.307,25.307,0,0,1,25.3,0Zm0,9.486c-4.294,0-4.832.018-6.518.1a11.605,11.605,0,0,0-3.838.735,8.085,8.085,0,0,0-4.624,4.624,11.607,11.607,0,0,0-.735,3.838c-.077,1.686-.1,2.225-.1,6.518s.018,4.832.1,6.518a11.607,11.607,0,0,0,.735,3.838,8.084,8.084,0,0,0,4.624,4.624,11.608,11.608,0,0,0,3.838.735c1.686.077,2.225.1,6.518.1s4.832-.018,6.518-.1a11.607,11.607,0,0,0,3.838-.735,8.084,8.084,0,0,0,4.624-4.624,11.607,11.607,0,0,0,.735-3.838c.077-1.686.1-2.225.1-6.518s-.018-4.832-.1-6.518a11.607,11.607,0,0,0-.735-3.838,8.084,8.084,0,0,0-4.624-4.624,11.6,11.6,0,0,0-3.838-.735C30.127,9.5,29.589,9.486,25.3,9.486Zm0,2.849c4.221,0,4.721.016,6.388.092a8.748,8.748,0,0,1,2.936.544,5.236,5.236,0,0,1,3,3,8.745,8.745,0,0,1,.544,2.936c.076,1.667.092,2.167.092,6.388s-.016,4.721-.092,6.388a8.745,8.745,0,0,1-.544,2.936,5.236,5.236,0,0,1-3,3,8.745,8.745,0,0,1-2.936.544c-1.667.076-2.167.092-6.388.092s-4.722-.016-6.388-.092a8.745,8.745,0,0,1-2.936-.544,5.235,5.235,0,0,1-3-3,8.747,8.747,0,0,1-.544-2.936c-.076-1.667-.092-2.167-.092-6.388s.016-4.721.092-6.388a8.747,8.747,0,0,1,.544-2.936,5.235,5.235,0,0,1,3-3,8.748,8.748,0,0,1,2.936-.544c1.667-.076,2.167-.092,6.388-.092Zm0,4.843A8.118,8.118,0,1,0,33.414,25.3,8.118,8.118,0,0,0,25.3,17.177Zm0,13.388a5.27,5.27,0,1,1,5.27-5.27A5.27,5.27,0,0,1,25.3,30.565ZM35.632,16.856a1.9,1.9,0,1,1-1.9-1.9A1.9,1.9,0,0,1,35.632,16.856Z" fill="#fff" fill-rule="evenodd"/>
</svg>
