<svg xmlns="http://www.w3.org/2000/svg" width="101.132" height="66.368" viewBox="0 0 101.132 66.368">
  <path id="mail" d="M88.491,5H12.642A12.644,12.644,0,0,0,0,17.642V58.727A12.642,12.642,0,0,0,12.642,71.368H88.491a12.642,12.642,0,0,0,12.642-12.642V17.642A12.644,12.644,0,0,0,88.491,5ZM6.321,21.592,28.44,38.184,6.321,54.776ZM94.812,58.727a6.327,6.327,0,0,1-6.321,6.321H12.642a6.325,6.325,0,0,1-6.321-6.321L31.073,40.159l13.8,10.357a9.476,9.476,0,0,0,11.374,0L70.059,40.159,94.812,58.727Zm0-3.95L72.689,38.184,94.812,21.592ZM54.356,47.988a6.316,6.316,0,0,1-7.582,0l-13.068-9.8-2.633-1.975L6.321,17.645v0a6.327,6.327,0,0,1,6.321-6.321H88.491a6.329,6.329,0,0,1,6.321,6.321Z" transform="translate(0 -5)" fill="#333"/>
</svg>
