<svg xmlns="http://www.w3.org/2000/svg" width="101.817" height="101.803" viewBox="0 0 101.817 101.803">
  <path id="iconfinder_icon-ios7-telephone_211830" d="M177.1,153.965C172.873,149.627,160.87,141.5,153,141.5a8.557,8.557,0,0,0-4.714,1.244c-3.847,2.458-6.912,4.367-8.387,4.367-.81,0-1.677-.723-3.586-2.372L136,144.45a100.348,100.348,0,0,1-8.474-7.924l-.521-.549c-.376-.376-.694-.723-1.012-1.041-1.793-1.851-3.095-3.181-7.693-8.387l-.2-.231c-2.2-2.487-3.644-4.107-3.731-5.293-.087-1.157.926-3.037,3.5-6.536,3.124-4.223,3.239-9.428.376-15.473-2.285-4.772-6.016-9.342-9.313-13.362l-.289-.347c-2.834-3.471-6.131-5.206-9.8-5.206-4.078,0-7.462,2.2-9.255,3.355-.145.087-.289.2-.434.289-4.02,2.545-6.941,6.045-8.04,9.6-1.648,5.35-2.748,12.292,5.148,26.723A129.135,129.135,0,0,0,109.1,151.044c9.255,9.486,13.362,12.552,22.559,19.2,10.238,7.4,20.071,11.655,26.955,11.655,6.392,0,11.424,0,18.6-8.647C184.731,164.175,181.607,158.622,177.1,153.965Z" transform="translate(-79.927 -80.1)"/>
</svg>
