<svg xmlns="http://www.w3.org/2000/svg" width="24.711" height="24.711" viewBox="0 0 24.711 24.711">
  <g id="_002-shopping-cart" data-name="002-shopping-cart" transform="translate(0)">
    <g id="shopping-cart" transform="translate(0)">
      <path id="Path_9" data-name="Path 9" d="M7.413,19.769A2.471,2.471,0,1,0,9.884,22.24,2.478,2.478,0,0,0,7.413,19.769ZM0,0V2.471H2.471l4.448,9.39-1.73,2.965a4.39,4.39,0,0,0-.247,1.236,2.478,2.478,0,0,0,2.471,2.471H22.24V16.062H7.907a.266.266,0,0,1-.247-.247v-.124l1.112-2.1h9.143a2.253,2.253,0,0,0,2.1-1.236l4.448-8.031a.68.68,0,0,0,.247-.618,1.167,1.167,0,0,0-1.236-1.236H5.189L4.077,0ZM19.769,19.769A2.471,2.471,0,1,0,22.24,22.24,2.478,2.478,0,0,0,19.769,19.769Z" fill="#404040"/>
    </g>
  </g>
</svg>
