<svg xmlns="http://www.w3.org/2000/svg" width="50.591" height="50.591" viewBox="0 0 50.591 50.591">
  <path id="iconfinder_43-twitter_104461" d="M29.019,5.157a25.3,25.3,0,1,0,25.294,25.3A25.3,25.3,0,0,0,29.019,5.157Zm12.742,20.2c.013.273.018.548.018.825,0,8.425-6.412,18.137-18.137,18.137a18.051,18.051,0,0,1-9.772-2.863,13.038,13.038,0,0,0,1.52.088,12.79,12.79,0,0,0,7.917-2.728,6.384,6.384,0,0,1-5.954-4.429,6.226,6.226,0,0,0,1.2.114,6.335,6.335,0,0,0,1.68-.223,6.38,6.38,0,0,1-5.115-6.25c0-.028,0-.054,0-.082a6.353,6.353,0,0,0,2.888.8,6.383,6.383,0,0,1-1.973-8.512,18.1,18.1,0,0,0,13.141,6.66,6.379,6.379,0,0,1,10.862-5.814,12.733,12.733,0,0,0,4.048-1.547,6.393,6.393,0,0,1-2.8,3.527,12.745,12.745,0,0,0,3.662-1A12.879,12.879,0,0,1,41.762,25.353Z" transform="translate(-3.723 -5.157)" fill="#fff"/>
</svg>
